<?xml version="1.0" encoding="utf-8"?>
<svg version="1.1" id="Layer_1" x="0px" y="0px" viewBox="0 0 1919.9 489.4" style="enable-background:new 0 0 1919.9 489.4;" xmlns="http://www.w3.org/2000/svg">
  <style type="text/css">
	.st0{fill:#BCBEC0;}
	.st1{fill:#B089F4;}
	.st2{fill:#CBB0F8;}
	.st3{fill:#9067FF;}
	.st4{fill:#7C3AED;}
	.st5{opacity:0.5;}
	.st6{fill:#57459E;}
	.st7{fill:#D6CFED;}
	.st8{opacity:0.25;}
	.st9{fill:#302B36;}
</style>
  <g>
    <g transform="matrix(1, 0, 0, 1, -114, -37)">
      <path class="st0" d="M1154.1,398.8l-9.6,11.6c-4.8-5.8-11.6-9.6-18.3-9.6c-12.5,0-22.2,9.6-22.2,22.2c0,12.5,9.6,22.2,22.2,22.2 c6.7,0,13.5-2.9,18.3-8.7l9.6,10.6c-7.7,7.7-18.3,12.5-28.9,12.5c-21.2,0-37.6-16.4-37.6-36.6c0-21.2,16.4-36.6,38.5-36.6 C1135.8,387.3,1146.4,392.1,1154.1,398.8"/>
    </g>
    <path class="st0" d="M 1095 367.6 L 1083.4 395.5 L 1106.5 395.5 L 1095 367.6 Z M 1078.6 409 L 1072.8 423.4 L 1055.5 423.4 L 1087.3 351.1 L 1104.6 351.1 L 1135.4 423.4 L 1118.1 423.4 L 1112.3 409 L 1078.6 409 Z"/>
    <polygon class="st0" points="1204.8 408.1 1204.8 422.5 1157.6 422.5 1157.6 350.3 1174 350.3 1174 408.1"/>
    <g transform="matrix(1, 0, 0, 1, -114, -37)">
      <path class="st0" d="M1406.5,398.8l-9.6,11.6c-4.8-5.8-11.6-9.6-18.3-9.6c-12.5,0-22.2,9.6-22.2,22.2c0,12.5,9.6,22.2,22.2,22.2 c6.7,0,13.5-2.9,18.3-8.7l9.6,10.6c-7.7,7.7-18.3,12.5-28.9,12.5c-21.2,0-37.6-16.4-37.6-36.6c0-21.2,16.4-36.6,38.5-36.6 C1388.2,387.3,1398.8,392.1,1406.5,398.8"/>
      <path class="st0" d="M1495.1,429.6c0,19.3-12.5,30.8-32.8,30.8c-20.2,0-32.8-11.6-32.8-30.8v-42.4h16.4v42.4 c0,10.6,6.7,16.4,16.4,16.4c9.6,0,16.4-6.7,16.4-16.4v-42.4h16.4V429.6z"/>
    </g>
    <polygon class="st0" points="1459.1 408.1 1459.1 422.5 1411.9 422.5 1411.9 350.3 1428.3 350.3 1428.3 408.1"/>
    <path class="st0" d="M 1515 367.6 L 1503.4 395.5 L 1526.5 395.5 L 1515 367.6 Z M 1498.6 409 L 1492.8 423.4 L 1475.5 423.4 L 1507.3 351.1 L 1524.6 351.1 L 1555.4 423.4 L 1538.1 423.4 L 1532.3 409 L 1498.6 409 Z"/>
    <polygon class="st0" points="1601.7 364.7 1601.7 423.5 1585.3 423.5 1585.3 364.7 1563.2 364.7 1563.2 351.2 1623.9 351.2 1623.9 364.7"/>
    <g transform="matrix(1, 0, 0, 1, -114, -37)">
      <path class="st0" d="M1769.6,423.9c0,12.5,10.6,22.2,22.2,22.2c11.6,0,22.2-9.6,22.2-22.2c0-12.5-9.6-22.2-22.2-22.2 C1779.3,401.7,1769.6,411.3,1769.6,423.9 M1830.3,423.9c0,21.2-16.4,36.6-38.5,36.6c-22.2,0-38.5-16.4-38.5-36.6 c0-21.2,16.4-36.6,38.5-36.6C1814,387.3,1830.3,402.7,1830.3,423.9"/>
      <path class="st0" d="M1888.1,425.8c8.7,0,14.4-3.9,14.4-12.5c0-7.7-4.8-11.6-14.4-11.6h-15.4v24.1H1888.1z M1889.1,439.3h-1.9 h-15.4v20.2h-15.4v-72.2h31.8c19.3,0,29.9,8.7,29.9,25c0,11.6-4.8,19.3-13.5,23.1l15.4,24.1h-18.3L1889.1,439.3z"/>
    </g>
    <polygon class="st1" points="205.1 0 176.2 29.9 220.5 74.2 198.3 96.3 176.2 118.5 131.9 73.2 102 103.1 146.3 147.4 124.2 169.5 125.1 316.9 198.3 243.7 271.5 169.5 345.7 96.3 271.5 23.1 249.4 45.3"/>
    <polygon class="st2" points="418.9 22.2 418.9 169.5 345.7 96.3 271.5 23.1"/>
    <polygon class="st3" points="418 464.3 271.5 464.3 197.4 390.2 125.1 316.9 198.3 243.7 271.5 316.9 344.8 390.2"/>
    <polygon class="st4" points="492.1 243.7 418.9 316.9 344.8 390.2 418 464.3 440.1 442.2 487.3 489.4 517.2 459.5 470 412.3 492.1 390.2 514.3 368 561.5 415.2 591.4 385.3 544.2 338.1 565.4 316.9 566.3 169.5" style=""/>
    <g transform="matrix(1, 0, 0, 1, 102, 0)">
      <g class="st5">
        <g>
          <polygon class="st6" points="96.3,243.7 23.1,316.9 115.6,263 &#9;&#9;&#9;&#9;"/>
        </g>
      </g>
    </g>
    <polygon class="st7" points="243.7,96.3 223.4,116.4 223.5,116.6 &#9;"/>
    <g transform="matrix(1, 0, 0, 1, 102, 0)">
      <g class="st8">
        <g>
          <polygon class="st6" points="169.5,23.1 223.4,116.4 243.7,96.3 &#9;&#9;&#9;&#9;"/>
        </g>
      </g>
    </g>
    <polygon class="st6" points="366.9 369 344.8 390.1 418 464.3"/>
    <g transform="matrix(1, 0, 0, 1, -114, -37)">
      <path class="st9" d="M743.7,207.1l2.9,16.4c10.6-17.3,26-20.2,40.5-20.2c14.5,0,28.9,5.8,36.6,13.5l-15.4,30.8 c-7.7-5.8-13.5-9.6-25-9.6c-18.3,0-35.6,9.6-35.6,35.6v75.1h-35.6V207.1H743.7z" style="fill: rgb(124, 58, 237);"/>
    </g>
    <polygon class="st9" points="874.4 170.1 787.7 371.5 749.1 371.5 776.1 309.8 719.3 170.1 759.7 170.1 780.9 231.8 794.4 272.2 808.9 232.7 834.9 170.1" style="paint-order: fill; fill: rgb(124, 58, 237);"/>
    <g transform="matrix(1, 0, 0, 1, -114, -37)">
      <path class="st9" d="M1126.1,278.4c0-22.2-15.4-40.5-40.5-40.5c-25,0-40.5,18.3-40.5,40.5s16.4,40.5,40.5,40.5 C1109.8,318.9,1126.1,300.6,1126.1,278.4 M1006.7,408.5V207.1h32.8l1.9,19.3c10.6-15.4,29.9-23.1,46.2-23.1 c43.3,0,73.2,32.8,73.2,74.2c0,41.4-26,74.2-71.3,74.2c-15.4,0-37.6-4.8-47.2-20.2v76.1L1006.7,408.5z" style="paint-order: stroke; fill-rule: nonzero; fill: rgb(124, 58, 237);"/>
      <path class="st9" d="M1236.9,167.6v40.5h39.5v29.9h-39.5v61.7c0,13.5,7.7,20.2,18.3,20.2c5.8,0,11.6-1.9,17.3-4.8l9.6,29.9 c-10.6,3.9-18.3,5.8-28.9,5.8c-30.8,1-51.1-16.4-51.1-52V237h-27v-29.9h27v-36.6L1236.9,167.6z" style="paint-order: stroke; fill-rule: nonzero; fill: rgb(124, 58, 237);"/>
      <path class="st9" d="M1330.4,278.4c0,21.2,13.5,41.4,38.5,41.4c26,0,38.5-20.2,38.5-41.4c0-21.2-15.4-42.4-38.5-42.4 C1343.8,237,1330.4,257.2,1330.4,278.4 M1443.1,278.4c0,40.5-27.9,74.2-74.2,74.2c-46.2,0-73.2-32.8-73.2-74.2 c0-40.5,27.9-74.2,73.2-74.2C1414.2,204.2,1443.1,237.9,1443.1,278.4" style="paint-order: stroke; fill-rule: nonzero; fill: rgb(124, 58, 237);"/>
    </g>
  </g>
</svg>